<mxfile host="app.diagrams.net" modified="2024-05-06T12:02:30.321Z" agent="Mozilla/5.0 (Windows NT 10.0; Win64; x64) AppleWebKit/537.36 (KHTML, like Gecko) Chrome/124.0.0.0 Safari/537.36 Edg/124.0.0.0" etag="kjD5gCcvcPwgmXUy_c_d" version="24.3.1" type="device">
  <diagram name="PÃ¡gina-1" id="f_IuoJwDBaWlX-iwLw_6">
    <mxGraphModel dx="1155" dy="654" grid="1" gridSize="10" guides="1" tooltips="1" connect="1" arrows="1" fold="1" page="1" pageScale="1" pageWidth="827" pageHeight="1169" math="0" shadow="0">
      <root>
        <mxCell id="0" />
        <mxCell id="1" parent="0" />
        <mxCell id="Rt3DIE7_ecytukwB_szZ-1" value="Database" style="strokeWidth=2;html=1;shape=mxgraph.flowchart.database;whiteSpace=wrap;" vertex="1" parent="1">
          <mxGeometry x="80" y="330" width="90" height="90" as="geometry" />
        </mxCell>
        <mxCell id="Rt3DIE7_ecytukwB_szZ-15" value="Table 1" style="shape=table;startSize=30;container=1;collapsible=0;childLayout=tableLayout;strokeColor=default;fontSize=16;" vertex="1" parent="1">
          <mxGeometry x="260" y="250" width="110" height="90" as="geometry" />
        </mxCell>
        <mxCell id="Rt3DIE7_ecytukwB_szZ-16" value="" style="shape=tableRow;horizontal=0;startSize=0;swimlaneHead=0;swimlaneBody=0;strokeColor=inherit;top=0;left=0;bottom=0;right=0;collapsible=0;dropTarget=0;fillColor=none;points=[[0,0.5],[1,0.5]];portConstraint=eastwest;fontSize=16;" vertex="1" parent="Rt3DIE7_ecytukwB_szZ-15">
          <mxGeometry y="30" width="110" height="20" as="geometry" />
        </mxCell>
        <mxCell id="Rt3DIE7_ecytukwB_szZ-17" value="" style="shape=partialRectangle;html=1;whiteSpace=wrap;connectable=0;strokeColor=inherit;overflow=hidden;fillColor=none;top=0;left=0;bottom=0;right=0;pointerEvents=1;fontSize=16;" vertex="1" parent="Rt3DIE7_ecytukwB_szZ-16">
          <mxGeometry width="37" height="20" as="geometry">
            <mxRectangle width="37" height="20" as="alternateBounds" />
          </mxGeometry>
        </mxCell>
        <mxCell id="Rt3DIE7_ecytukwB_szZ-18" value="" style="shape=partialRectangle;html=1;whiteSpace=wrap;connectable=0;strokeColor=inherit;overflow=hidden;fillColor=none;top=0;left=0;bottom=0;right=0;pointerEvents=1;fontSize=16;" vertex="1" parent="Rt3DIE7_ecytukwB_szZ-16">
          <mxGeometry x="37" width="36" height="20" as="geometry">
            <mxRectangle width="36" height="20" as="alternateBounds" />
          </mxGeometry>
        </mxCell>
        <mxCell id="Rt3DIE7_ecytukwB_szZ-19" value="" style="shape=partialRectangle;html=1;whiteSpace=wrap;connectable=0;strokeColor=inherit;overflow=hidden;fillColor=none;top=0;left=0;bottom=0;right=0;pointerEvents=1;fontSize=16;" vertex="1" parent="Rt3DIE7_ecytukwB_szZ-16">
          <mxGeometry x="73" width="37" height="20" as="geometry">
            <mxRectangle width="37" height="20" as="alternateBounds" />
          </mxGeometry>
        </mxCell>
        <mxCell id="Rt3DIE7_ecytukwB_szZ-20" value="" style="shape=tableRow;horizontal=0;startSize=0;swimlaneHead=0;swimlaneBody=0;strokeColor=inherit;top=0;left=0;bottom=0;right=0;collapsible=0;dropTarget=0;fillColor=none;points=[[0,0.5],[1,0.5]];portConstraint=eastwest;fontSize=16;" vertex="1" parent="Rt3DIE7_ecytukwB_szZ-15">
          <mxGeometry y="50" width="110" height="20" as="geometry" />
        </mxCell>
        <mxCell id="Rt3DIE7_ecytukwB_szZ-21" value="" style="shape=partialRectangle;html=1;whiteSpace=wrap;connectable=0;strokeColor=inherit;overflow=hidden;fillColor=none;top=0;left=0;bottom=0;right=0;pointerEvents=1;fontSize=16;" vertex="1" parent="Rt3DIE7_ecytukwB_szZ-20">
          <mxGeometry width="37" height="20" as="geometry">
            <mxRectangle width="37" height="20" as="alternateBounds" />
          </mxGeometry>
        </mxCell>
        <mxCell id="Rt3DIE7_ecytukwB_szZ-22" value="" style="shape=partialRectangle;html=1;whiteSpace=wrap;connectable=0;strokeColor=inherit;overflow=hidden;fillColor=none;top=0;left=0;bottom=0;right=0;pointerEvents=1;fontSize=16;" vertex="1" parent="Rt3DIE7_ecytukwB_szZ-20">
          <mxGeometry x="37" width="36" height="20" as="geometry">
            <mxRectangle width="36" height="20" as="alternateBounds" />
          </mxGeometry>
        </mxCell>
        <mxCell id="Rt3DIE7_ecytukwB_szZ-23" value="" style="shape=partialRectangle;html=1;whiteSpace=wrap;connectable=0;strokeColor=inherit;overflow=hidden;fillColor=none;top=0;left=0;bottom=0;right=0;pointerEvents=1;fontSize=16;" vertex="1" parent="Rt3DIE7_ecytukwB_szZ-20">
          <mxGeometry x="73" width="37" height="20" as="geometry">
            <mxRectangle width="37" height="20" as="alternateBounds" />
          </mxGeometry>
        </mxCell>
        <mxCell id="Rt3DIE7_ecytukwB_szZ-24" value="" style="shape=tableRow;horizontal=0;startSize=0;swimlaneHead=0;swimlaneBody=0;strokeColor=inherit;top=0;left=0;bottom=0;right=0;collapsible=0;dropTarget=0;fillColor=none;points=[[0,0.5],[1,0.5]];portConstraint=eastwest;fontSize=16;" vertex="1" parent="Rt3DIE7_ecytukwB_szZ-15">
          <mxGeometry y="70" width="110" height="20" as="geometry" />
        </mxCell>
        <mxCell id="Rt3DIE7_ecytukwB_szZ-25" value="" style="shape=partialRectangle;html=1;whiteSpace=wrap;connectable=0;strokeColor=inherit;overflow=hidden;fillColor=none;top=0;left=0;bottom=0;right=0;pointerEvents=1;fontSize=16;" vertex="1" parent="Rt3DIE7_ecytukwB_szZ-24">
          <mxGeometry width="37" height="20" as="geometry">
            <mxRectangle width="37" height="20" as="alternateBounds" />
          </mxGeometry>
        </mxCell>
        <mxCell id="Rt3DIE7_ecytukwB_szZ-26" value="" style="shape=partialRectangle;html=1;whiteSpace=wrap;connectable=0;strokeColor=inherit;overflow=hidden;fillColor=none;top=0;left=0;bottom=0;right=0;pointerEvents=1;fontSize=16;" vertex="1" parent="Rt3DIE7_ecytukwB_szZ-24">
          <mxGeometry x="37" width="36" height="20" as="geometry">
            <mxRectangle width="36" height="20" as="alternateBounds" />
          </mxGeometry>
        </mxCell>
        <mxCell id="Rt3DIE7_ecytukwB_szZ-27" value="" style="shape=partialRectangle;html=1;whiteSpace=wrap;connectable=0;strokeColor=inherit;overflow=hidden;fillColor=none;top=0;left=0;bottom=0;right=0;pointerEvents=1;fontSize=16;" vertex="1" parent="Rt3DIE7_ecytukwB_szZ-24">
          <mxGeometry x="73" width="37" height="20" as="geometry">
            <mxRectangle width="37" height="20" as="alternateBounds" />
          </mxGeometry>
        </mxCell>
        <mxCell id="Rt3DIE7_ecytukwB_szZ-28" value="Table 4" style="shape=table;startSize=30;container=1;collapsible=0;childLayout=tableLayout;strokeColor=default;fontSize=16;" vertex="1" parent="1">
          <mxGeometry x="260" y="390" width="110" height="90" as="geometry" />
        </mxCell>
        <mxCell id="Rt3DIE7_ecytukwB_szZ-29" value="" style="shape=tableRow;horizontal=0;startSize=0;swimlaneHead=0;swimlaneBody=0;strokeColor=inherit;top=0;left=0;bottom=0;right=0;collapsible=0;dropTarget=0;fillColor=none;points=[[0,0.5],[1,0.5]];portConstraint=eastwest;fontSize=16;" vertex="1" parent="Rt3DIE7_ecytukwB_szZ-28">
          <mxGeometry y="30" width="110" height="20" as="geometry" />
        </mxCell>
        <mxCell id="Rt3DIE7_ecytukwB_szZ-30" value="" style="shape=partialRectangle;html=1;whiteSpace=wrap;connectable=0;strokeColor=inherit;overflow=hidden;fillColor=none;top=0;left=0;bottom=0;right=0;pointerEvents=1;fontSize=16;" vertex="1" parent="Rt3DIE7_ecytukwB_szZ-29">
          <mxGeometry width="37" height="20" as="geometry">
            <mxRectangle width="37" height="20" as="alternateBounds" />
          </mxGeometry>
        </mxCell>
        <mxCell id="Rt3DIE7_ecytukwB_szZ-31" value="" style="shape=partialRectangle;html=1;whiteSpace=wrap;connectable=0;strokeColor=inherit;overflow=hidden;fillColor=none;top=0;left=0;bottom=0;right=0;pointerEvents=1;fontSize=16;" vertex="1" parent="Rt3DIE7_ecytukwB_szZ-29">
          <mxGeometry x="37" width="36" height="20" as="geometry">
            <mxRectangle width="36" height="20" as="alternateBounds" />
          </mxGeometry>
        </mxCell>
        <mxCell id="Rt3DIE7_ecytukwB_szZ-32" value="" style="shape=partialRectangle;html=1;whiteSpace=wrap;connectable=0;strokeColor=inherit;overflow=hidden;fillColor=none;top=0;left=0;bottom=0;right=0;pointerEvents=1;fontSize=16;" vertex="1" parent="Rt3DIE7_ecytukwB_szZ-29">
          <mxGeometry x="73" width="37" height="20" as="geometry">
            <mxRectangle width="37" height="20" as="alternateBounds" />
          </mxGeometry>
        </mxCell>
        <mxCell id="Rt3DIE7_ecytukwB_szZ-33" value="" style="shape=tableRow;horizontal=0;startSize=0;swimlaneHead=0;swimlaneBody=0;strokeColor=inherit;top=0;left=0;bottom=0;right=0;collapsible=0;dropTarget=0;fillColor=none;points=[[0,0.5],[1,0.5]];portConstraint=eastwest;fontSize=16;" vertex="1" parent="Rt3DIE7_ecytukwB_szZ-28">
          <mxGeometry y="50" width="110" height="20" as="geometry" />
        </mxCell>
        <mxCell id="Rt3DIE7_ecytukwB_szZ-34" value="" style="shape=partialRectangle;html=1;whiteSpace=wrap;connectable=0;strokeColor=inherit;overflow=hidden;fillColor=none;top=0;left=0;bottom=0;right=0;pointerEvents=1;fontSize=16;" vertex="1" parent="Rt3DIE7_ecytukwB_szZ-33">
          <mxGeometry width="37" height="20" as="geometry">
            <mxRectangle width="37" height="20" as="alternateBounds" />
          </mxGeometry>
        </mxCell>
        <mxCell id="Rt3DIE7_ecytukwB_szZ-35" value="" style="shape=partialRectangle;html=1;whiteSpace=wrap;connectable=0;strokeColor=inherit;overflow=hidden;fillColor=none;top=0;left=0;bottom=0;right=0;pointerEvents=1;fontSize=16;" vertex="1" parent="Rt3DIE7_ecytukwB_szZ-33">
          <mxGeometry x="37" width="36" height="20" as="geometry">
            <mxRectangle width="36" height="20" as="alternateBounds" />
          </mxGeometry>
        </mxCell>
        <mxCell id="Rt3DIE7_ecytukwB_szZ-36" value="" style="shape=partialRectangle;html=1;whiteSpace=wrap;connectable=0;strokeColor=inherit;overflow=hidden;fillColor=none;top=0;left=0;bottom=0;right=0;pointerEvents=1;fontSize=16;" vertex="1" parent="Rt3DIE7_ecytukwB_szZ-33">
          <mxGeometry x="73" width="37" height="20" as="geometry">
            <mxRectangle width="37" height="20" as="alternateBounds" />
          </mxGeometry>
        </mxCell>
        <mxCell id="Rt3DIE7_ecytukwB_szZ-37" value="" style="shape=tableRow;horizontal=0;startSize=0;swimlaneHead=0;swimlaneBody=0;strokeColor=inherit;top=0;left=0;bottom=0;right=0;collapsible=0;dropTarget=0;fillColor=none;points=[[0,0.5],[1,0.5]];portConstraint=eastwest;fontSize=16;" vertex="1" parent="Rt3DIE7_ecytukwB_szZ-28">
          <mxGeometry y="70" width="110" height="20" as="geometry" />
        </mxCell>
        <mxCell id="Rt3DIE7_ecytukwB_szZ-38" value="" style="shape=partialRectangle;html=1;whiteSpace=wrap;connectable=0;strokeColor=inherit;overflow=hidden;fillColor=none;top=0;left=0;bottom=0;right=0;pointerEvents=1;fontSize=16;" vertex="1" parent="Rt3DIE7_ecytukwB_szZ-37">
          <mxGeometry width="37" height="20" as="geometry">
            <mxRectangle width="37" height="20" as="alternateBounds" />
          </mxGeometry>
        </mxCell>
        <mxCell id="Rt3DIE7_ecytukwB_szZ-39" value="" style="shape=partialRectangle;html=1;whiteSpace=wrap;connectable=0;strokeColor=inherit;overflow=hidden;fillColor=none;top=0;left=0;bottom=0;right=0;pointerEvents=1;fontSize=16;" vertex="1" parent="Rt3DIE7_ecytukwB_szZ-37">
          <mxGeometry x="37" width="36" height="20" as="geometry">
            <mxRectangle width="36" height="20" as="alternateBounds" />
          </mxGeometry>
        </mxCell>
        <mxCell id="Rt3DIE7_ecytukwB_szZ-40" value="" style="shape=partialRectangle;html=1;whiteSpace=wrap;connectable=0;strokeColor=inherit;overflow=hidden;fillColor=none;top=0;left=0;bottom=0;right=0;pointerEvents=1;fontSize=16;" vertex="1" parent="Rt3DIE7_ecytukwB_szZ-37">
          <mxGeometry x="73" width="37" height="20" as="geometry">
            <mxRectangle width="37" height="20" as="alternateBounds" />
          </mxGeometry>
        </mxCell>
        <mxCell id="Rt3DIE7_ecytukwB_szZ-41" value="Table 2" style="shape=table;startSize=30;container=1;collapsible=0;childLayout=tableLayout;strokeColor=default;fontSize=16;" vertex="1" parent="1">
          <mxGeometry x="380" y="320" width="110" height="90" as="geometry" />
        </mxCell>
        <mxCell id="Rt3DIE7_ecytukwB_szZ-42" value="" style="shape=tableRow;horizontal=0;startSize=0;swimlaneHead=0;swimlaneBody=0;strokeColor=inherit;top=0;left=0;bottom=0;right=0;collapsible=0;dropTarget=0;fillColor=none;points=[[0,0.5],[1,0.5]];portConstraint=eastwest;fontSize=16;" vertex="1" parent="Rt3DIE7_ecytukwB_szZ-41">
          <mxGeometry y="30" width="110" height="20" as="geometry" />
        </mxCell>
        <mxCell id="Rt3DIE7_ecytukwB_szZ-43" value="" style="shape=partialRectangle;html=1;whiteSpace=wrap;connectable=0;strokeColor=inherit;overflow=hidden;fillColor=none;top=0;left=0;bottom=0;right=0;pointerEvents=1;fontSize=16;" vertex="1" parent="Rt3DIE7_ecytukwB_szZ-42">
          <mxGeometry width="37" height="20" as="geometry">
            <mxRectangle width="37" height="20" as="alternateBounds" />
          </mxGeometry>
        </mxCell>
        <mxCell id="Rt3DIE7_ecytukwB_szZ-44" value="" style="shape=partialRectangle;html=1;whiteSpace=wrap;connectable=0;strokeColor=inherit;overflow=hidden;fillColor=none;top=0;left=0;bottom=0;right=0;pointerEvents=1;fontSize=16;" vertex="1" parent="Rt3DIE7_ecytukwB_szZ-42">
          <mxGeometry x="37" width="36" height="20" as="geometry">
            <mxRectangle width="36" height="20" as="alternateBounds" />
          </mxGeometry>
        </mxCell>
        <mxCell id="Rt3DIE7_ecytukwB_szZ-45" value="" style="shape=partialRectangle;html=1;whiteSpace=wrap;connectable=0;strokeColor=inherit;overflow=hidden;fillColor=none;top=0;left=0;bottom=0;right=0;pointerEvents=1;fontSize=16;" vertex="1" parent="Rt3DIE7_ecytukwB_szZ-42">
          <mxGeometry x="73" width="37" height="20" as="geometry">
            <mxRectangle width="37" height="20" as="alternateBounds" />
          </mxGeometry>
        </mxCell>
        <mxCell id="Rt3DIE7_ecytukwB_szZ-46" value="" style="shape=tableRow;horizontal=0;startSize=0;swimlaneHead=0;swimlaneBody=0;strokeColor=inherit;top=0;left=0;bottom=0;right=0;collapsible=0;dropTarget=0;fillColor=none;points=[[0,0.5],[1,0.5]];portConstraint=eastwest;fontSize=16;" vertex="1" parent="Rt3DIE7_ecytukwB_szZ-41">
          <mxGeometry y="50" width="110" height="20" as="geometry" />
        </mxCell>
        <mxCell id="Rt3DIE7_ecytukwB_szZ-47" value="" style="shape=partialRectangle;html=1;whiteSpace=wrap;connectable=0;strokeColor=inherit;overflow=hidden;fillColor=none;top=0;left=0;bottom=0;right=0;pointerEvents=1;fontSize=16;" vertex="1" parent="Rt3DIE7_ecytukwB_szZ-46">
          <mxGeometry width="37" height="20" as="geometry">
            <mxRectangle width="37" height="20" as="alternateBounds" />
          </mxGeometry>
        </mxCell>
        <mxCell id="Rt3DIE7_ecytukwB_szZ-48" value="" style="shape=partialRectangle;html=1;whiteSpace=wrap;connectable=0;strokeColor=inherit;overflow=hidden;fillColor=none;top=0;left=0;bottom=0;right=0;pointerEvents=1;fontSize=16;" vertex="1" parent="Rt3DIE7_ecytukwB_szZ-46">
          <mxGeometry x="37" width="36" height="20" as="geometry">
            <mxRectangle width="36" height="20" as="alternateBounds" />
          </mxGeometry>
        </mxCell>
        <mxCell id="Rt3DIE7_ecytukwB_szZ-49" value="" style="shape=partialRectangle;html=1;whiteSpace=wrap;connectable=0;strokeColor=inherit;overflow=hidden;fillColor=none;top=0;left=0;bottom=0;right=0;pointerEvents=1;fontSize=16;" vertex="1" parent="Rt3DIE7_ecytukwB_szZ-46">
          <mxGeometry x="73" width="37" height="20" as="geometry">
            <mxRectangle width="37" height="20" as="alternateBounds" />
          </mxGeometry>
        </mxCell>
        <mxCell id="Rt3DIE7_ecytukwB_szZ-50" value="" style="shape=tableRow;horizontal=0;startSize=0;swimlaneHead=0;swimlaneBody=0;strokeColor=inherit;top=0;left=0;bottom=0;right=0;collapsible=0;dropTarget=0;fillColor=none;points=[[0,0.5],[1,0.5]];portConstraint=eastwest;fontSize=16;" vertex="1" parent="Rt3DIE7_ecytukwB_szZ-41">
          <mxGeometry y="70" width="110" height="20" as="geometry" />
        </mxCell>
        <mxCell id="Rt3DIE7_ecytukwB_szZ-51" value="" style="shape=partialRectangle;html=1;whiteSpace=wrap;connectable=0;strokeColor=inherit;overflow=hidden;fillColor=none;top=0;left=0;bottom=0;right=0;pointerEvents=1;fontSize=16;" vertex="1" parent="Rt3DIE7_ecytukwB_szZ-50">
          <mxGeometry width="37" height="20" as="geometry">
            <mxRectangle width="37" height="20" as="alternateBounds" />
          </mxGeometry>
        </mxCell>
        <mxCell id="Rt3DIE7_ecytukwB_szZ-52" value="" style="shape=partialRectangle;html=1;whiteSpace=wrap;connectable=0;strokeColor=inherit;overflow=hidden;fillColor=none;top=0;left=0;bottom=0;right=0;pointerEvents=1;fontSize=16;" vertex="1" parent="Rt3DIE7_ecytukwB_szZ-50">
          <mxGeometry x="37" width="36" height="20" as="geometry">
            <mxRectangle width="36" height="20" as="alternateBounds" />
          </mxGeometry>
        </mxCell>
        <mxCell id="Rt3DIE7_ecytukwB_szZ-53" value="" style="shape=partialRectangle;html=1;whiteSpace=wrap;connectable=0;strokeColor=inherit;overflow=hidden;fillColor=none;top=0;left=0;bottom=0;right=0;pointerEvents=1;fontSize=16;" vertex="1" parent="Rt3DIE7_ecytukwB_szZ-50">
          <mxGeometry x="73" width="37" height="20" as="geometry">
            <mxRectangle width="37" height="20" as="alternateBounds" />
          </mxGeometry>
        </mxCell>
        <mxCell id="Rt3DIE7_ecytukwB_szZ-54" value="Table 3" style="shape=table;startSize=30;container=1;collapsible=0;childLayout=tableLayout;strokeColor=default;fontSize=16;" vertex="1" parent="1">
          <mxGeometry x="500" y="250" width="110" height="90" as="geometry" />
        </mxCell>
        <mxCell id="Rt3DIE7_ecytukwB_szZ-55" value="" style="shape=tableRow;horizontal=0;startSize=0;swimlaneHead=0;swimlaneBody=0;strokeColor=inherit;top=0;left=0;bottom=0;right=0;collapsible=0;dropTarget=0;fillColor=none;points=[[0,0.5],[1,0.5]];portConstraint=eastwest;fontSize=16;" vertex="1" parent="Rt3DIE7_ecytukwB_szZ-54">
          <mxGeometry y="30" width="110" height="20" as="geometry" />
        </mxCell>
        <mxCell id="Rt3DIE7_ecytukwB_szZ-56" value="" style="shape=partialRectangle;html=1;whiteSpace=wrap;connectable=0;strokeColor=inherit;overflow=hidden;fillColor=none;top=0;left=0;bottom=0;right=0;pointerEvents=1;fontSize=16;" vertex="1" parent="Rt3DIE7_ecytukwB_szZ-55">
          <mxGeometry width="37" height="20" as="geometry">
            <mxRectangle width="37" height="20" as="alternateBounds" />
          </mxGeometry>
        </mxCell>
        <mxCell id="Rt3DIE7_ecytukwB_szZ-57" value="" style="shape=partialRectangle;html=1;whiteSpace=wrap;connectable=0;strokeColor=inherit;overflow=hidden;fillColor=none;top=0;left=0;bottom=0;right=0;pointerEvents=1;fontSize=16;" vertex="1" parent="Rt3DIE7_ecytukwB_szZ-55">
          <mxGeometry x="37" width="36" height="20" as="geometry">
            <mxRectangle width="36" height="20" as="alternateBounds" />
          </mxGeometry>
        </mxCell>
        <mxCell id="Rt3DIE7_ecytukwB_szZ-58" value="" style="shape=partialRectangle;html=1;whiteSpace=wrap;connectable=0;strokeColor=inherit;overflow=hidden;fillColor=none;top=0;left=0;bottom=0;right=0;pointerEvents=1;fontSize=16;" vertex="1" parent="Rt3DIE7_ecytukwB_szZ-55">
          <mxGeometry x="73" width="37" height="20" as="geometry">
            <mxRectangle width="37" height="20" as="alternateBounds" />
          </mxGeometry>
        </mxCell>
        <mxCell id="Rt3DIE7_ecytukwB_szZ-59" value="" style="shape=tableRow;horizontal=0;startSize=0;swimlaneHead=0;swimlaneBody=0;strokeColor=inherit;top=0;left=0;bottom=0;right=0;collapsible=0;dropTarget=0;fillColor=none;points=[[0,0.5],[1,0.5]];portConstraint=eastwest;fontSize=16;" vertex="1" parent="Rt3DIE7_ecytukwB_szZ-54">
          <mxGeometry y="50" width="110" height="20" as="geometry" />
        </mxCell>
        <mxCell id="Rt3DIE7_ecytukwB_szZ-60" value="" style="shape=partialRectangle;html=1;whiteSpace=wrap;connectable=0;strokeColor=inherit;overflow=hidden;fillColor=none;top=0;left=0;bottom=0;right=0;pointerEvents=1;fontSize=16;" vertex="1" parent="Rt3DIE7_ecytukwB_szZ-59">
          <mxGeometry width="37" height="20" as="geometry">
            <mxRectangle width="37" height="20" as="alternateBounds" />
          </mxGeometry>
        </mxCell>
        <mxCell id="Rt3DIE7_ecytukwB_szZ-61" value="" style="shape=partialRectangle;html=1;whiteSpace=wrap;connectable=0;strokeColor=inherit;overflow=hidden;fillColor=none;top=0;left=0;bottom=0;right=0;pointerEvents=1;fontSize=16;" vertex="1" parent="Rt3DIE7_ecytukwB_szZ-59">
          <mxGeometry x="37" width="36" height="20" as="geometry">
            <mxRectangle width="36" height="20" as="alternateBounds" />
          </mxGeometry>
        </mxCell>
        <mxCell id="Rt3DIE7_ecytukwB_szZ-62" value="" style="shape=partialRectangle;html=1;whiteSpace=wrap;connectable=0;strokeColor=inherit;overflow=hidden;fillColor=none;top=0;left=0;bottom=0;right=0;pointerEvents=1;fontSize=16;" vertex="1" parent="Rt3DIE7_ecytukwB_szZ-59">
          <mxGeometry x="73" width="37" height="20" as="geometry">
            <mxRectangle width="37" height="20" as="alternateBounds" />
          </mxGeometry>
        </mxCell>
        <mxCell id="Rt3DIE7_ecytukwB_szZ-63" value="" style="shape=tableRow;horizontal=0;startSize=0;swimlaneHead=0;swimlaneBody=0;strokeColor=inherit;top=0;left=0;bottom=0;right=0;collapsible=0;dropTarget=0;fillColor=none;points=[[0,0.5],[1,0.5]];portConstraint=eastwest;fontSize=16;" vertex="1" parent="Rt3DIE7_ecytukwB_szZ-54">
          <mxGeometry y="70" width="110" height="20" as="geometry" />
        </mxCell>
        <mxCell id="Rt3DIE7_ecytukwB_szZ-64" value="" style="shape=partialRectangle;html=1;whiteSpace=wrap;connectable=0;strokeColor=inherit;overflow=hidden;fillColor=none;top=0;left=0;bottom=0;right=0;pointerEvents=1;fontSize=16;" vertex="1" parent="Rt3DIE7_ecytukwB_szZ-63">
          <mxGeometry width="37" height="20" as="geometry">
            <mxRectangle width="37" height="20" as="alternateBounds" />
          </mxGeometry>
        </mxCell>
        <mxCell id="Rt3DIE7_ecytukwB_szZ-65" value="" style="shape=partialRectangle;html=1;whiteSpace=wrap;connectable=0;strokeColor=inherit;overflow=hidden;fillColor=none;top=0;left=0;bottom=0;right=0;pointerEvents=1;fontSize=16;" vertex="1" parent="Rt3DIE7_ecytukwB_szZ-63">
          <mxGeometry x="37" width="36" height="20" as="geometry">
            <mxRectangle width="36" height="20" as="alternateBounds" />
          </mxGeometry>
        </mxCell>
        <mxCell id="Rt3DIE7_ecytukwB_szZ-66" value="" style="shape=partialRectangle;html=1;whiteSpace=wrap;connectable=0;strokeColor=inherit;overflow=hidden;fillColor=none;top=0;left=0;bottom=0;right=0;pointerEvents=1;fontSize=16;" vertex="1" parent="Rt3DIE7_ecytukwB_szZ-63">
          <mxGeometry x="73" width="37" height="20" as="geometry">
            <mxRectangle width="37" height="20" as="alternateBounds" />
          </mxGeometry>
        </mxCell>
        <mxCell id="Rt3DIE7_ecytukwB_szZ-67" value="Table 5" style="shape=table;startSize=30;container=1;collapsible=0;childLayout=tableLayout;strokeColor=default;fontSize=16;" vertex="1" parent="1">
          <mxGeometry x="500" y="390" width="110" height="90" as="geometry" />
        </mxCell>
        <mxCell id="Rt3DIE7_ecytukwB_szZ-68" value="" style="shape=tableRow;horizontal=0;startSize=0;swimlaneHead=0;swimlaneBody=0;strokeColor=inherit;top=0;left=0;bottom=0;right=0;collapsible=0;dropTarget=0;fillColor=none;points=[[0,0.5],[1,0.5]];portConstraint=eastwest;fontSize=16;" vertex="1" parent="Rt3DIE7_ecytukwB_szZ-67">
          <mxGeometry y="30" width="110" height="20" as="geometry" />
        </mxCell>
        <mxCell id="Rt3DIE7_ecytukwB_szZ-69" value="" style="shape=partialRectangle;html=1;whiteSpace=wrap;connectable=0;strokeColor=inherit;overflow=hidden;fillColor=none;top=0;left=0;bottom=0;right=0;pointerEvents=1;fontSize=16;" vertex="1" parent="Rt3DIE7_ecytukwB_szZ-68">
          <mxGeometry width="37" height="20" as="geometry">
            <mxRectangle width="37" height="20" as="alternateBounds" />
          </mxGeometry>
        </mxCell>
        <mxCell id="Rt3DIE7_ecytukwB_szZ-70" value="" style="shape=partialRectangle;html=1;whiteSpace=wrap;connectable=0;strokeColor=inherit;overflow=hidden;fillColor=none;top=0;left=0;bottom=0;right=0;pointerEvents=1;fontSize=16;" vertex="1" parent="Rt3DIE7_ecytukwB_szZ-68">
          <mxGeometry x="37" width="36" height="20" as="geometry">
            <mxRectangle width="36" height="20" as="alternateBounds" />
          </mxGeometry>
        </mxCell>
        <mxCell id="Rt3DIE7_ecytukwB_szZ-71" value="" style="shape=partialRectangle;html=1;whiteSpace=wrap;connectable=0;strokeColor=inherit;overflow=hidden;fillColor=none;top=0;left=0;bottom=0;right=0;pointerEvents=1;fontSize=16;" vertex="1" parent="Rt3DIE7_ecytukwB_szZ-68">
          <mxGeometry x="73" width="37" height="20" as="geometry">
            <mxRectangle width="37" height="20" as="alternateBounds" />
          </mxGeometry>
        </mxCell>
        <mxCell id="Rt3DIE7_ecytukwB_szZ-72" value="" style="shape=tableRow;horizontal=0;startSize=0;swimlaneHead=0;swimlaneBody=0;strokeColor=inherit;top=0;left=0;bottom=0;right=0;collapsible=0;dropTarget=0;fillColor=none;points=[[0,0.5],[1,0.5]];portConstraint=eastwest;fontSize=16;" vertex="1" parent="Rt3DIE7_ecytukwB_szZ-67">
          <mxGeometry y="50" width="110" height="20" as="geometry" />
        </mxCell>
        <mxCell id="Rt3DIE7_ecytukwB_szZ-73" value="" style="shape=partialRectangle;html=1;whiteSpace=wrap;connectable=0;strokeColor=inherit;overflow=hidden;fillColor=none;top=0;left=0;bottom=0;right=0;pointerEvents=1;fontSize=16;" vertex="1" parent="Rt3DIE7_ecytukwB_szZ-72">
          <mxGeometry width="37" height="20" as="geometry">
            <mxRectangle width="37" height="20" as="alternateBounds" />
          </mxGeometry>
        </mxCell>
        <mxCell id="Rt3DIE7_ecytukwB_szZ-74" value="" style="shape=partialRectangle;html=1;whiteSpace=wrap;connectable=0;strokeColor=inherit;overflow=hidden;fillColor=none;top=0;left=0;bottom=0;right=0;pointerEvents=1;fontSize=16;" vertex="1" parent="Rt3DIE7_ecytukwB_szZ-72">
          <mxGeometry x="37" width="36" height="20" as="geometry">
            <mxRectangle width="36" height="20" as="alternateBounds" />
          </mxGeometry>
        </mxCell>
        <mxCell id="Rt3DIE7_ecytukwB_szZ-75" value="" style="shape=partialRectangle;html=1;whiteSpace=wrap;connectable=0;strokeColor=inherit;overflow=hidden;fillColor=none;top=0;left=0;bottom=0;right=0;pointerEvents=1;fontSize=16;" vertex="1" parent="Rt3DIE7_ecytukwB_szZ-72">
          <mxGeometry x="73" width="37" height="20" as="geometry">
            <mxRectangle width="37" height="20" as="alternateBounds" />
          </mxGeometry>
        </mxCell>
        <mxCell id="Rt3DIE7_ecytukwB_szZ-76" value="" style="shape=tableRow;horizontal=0;startSize=0;swimlaneHead=0;swimlaneBody=0;strokeColor=inherit;top=0;left=0;bottom=0;right=0;collapsible=0;dropTarget=0;fillColor=none;points=[[0,0.5],[1,0.5]];portConstraint=eastwest;fontSize=16;" vertex="1" parent="Rt3DIE7_ecytukwB_szZ-67">
          <mxGeometry y="70" width="110" height="20" as="geometry" />
        </mxCell>
        <mxCell id="Rt3DIE7_ecytukwB_szZ-77" value="" style="shape=partialRectangle;html=1;whiteSpace=wrap;connectable=0;strokeColor=inherit;overflow=hidden;fillColor=none;top=0;left=0;bottom=0;right=0;pointerEvents=1;fontSize=16;" vertex="1" parent="Rt3DIE7_ecytukwB_szZ-76">
          <mxGeometry width="37" height="20" as="geometry">
            <mxRectangle width="37" height="20" as="alternateBounds" />
          </mxGeometry>
        </mxCell>
        <mxCell id="Rt3DIE7_ecytukwB_szZ-78" value="" style="shape=partialRectangle;html=1;whiteSpace=wrap;connectable=0;strokeColor=inherit;overflow=hidden;fillColor=none;top=0;left=0;bottom=0;right=0;pointerEvents=1;fontSize=16;" vertex="1" parent="Rt3DIE7_ecytukwB_szZ-76">
          <mxGeometry x="37" width="36" height="20" as="geometry">
            <mxRectangle width="36" height="20" as="alternateBounds" />
          </mxGeometry>
        </mxCell>
        <mxCell id="Rt3DIE7_ecytukwB_szZ-79" value="" style="shape=partialRectangle;html=1;whiteSpace=wrap;connectable=0;strokeColor=inherit;overflow=hidden;fillColor=none;top=0;left=0;bottom=0;right=0;pointerEvents=1;fontSize=16;" vertex="1" parent="Rt3DIE7_ecytukwB_szZ-76">
          <mxGeometry x="73" width="37" height="20" as="geometry">
            <mxRectangle width="37" height="20" as="alternateBounds" />
          </mxGeometry>
        </mxCell>
        <mxCell id="Rt3DIE7_ecytukwB_szZ-81" value="" style="ellipse;shape=cloud;whiteSpace=wrap;html=1;fillColor=none;" vertex="1" parent="1">
          <mxGeometry x="140" y="120" width="552.5" height="480" as="geometry" />
        </mxCell>
        <mxCell id="Rt3DIE7_ecytukwB_szZ-82" style="edgeStyle=orthogonalEdgeStyle;rounded=0;orthogonalLoop=1;jettySize=auto;html=1;exitX=1;exitY=0.5;exitDx=0;exitDy=0;exitPerimeter=0;entryX=0.16;entryY=0.55;entryDx=0;entryDy=0;entryPerimeter=0;" edge="1" parent="1" source="Rt3DIE7_ecytukwB_szZ-1" target="Rt3DIE7_ecytukwB_szZ-81">
          <mxGeometry relative="1" as="geometry">
            <Array as="points">
              <mxPoint x="170" y="375" />
              <mxPoint x="170" y="369" />
            </Array>
          </mxGeometry>
        </mxCell>
      </root>
    </mxGraphModel>
  </diagram>
</mxfile>
